<?xml version="1.0" encoding="utf-8"?>
<!-- Generator: Adobe Illustrator 26.0.3, SVG Export Plug-In . SVG Version: 6.00 Build 0)  -->
<svg version="1.0" id="katman_1" xmlns="http://www.w3.org/2000/svg" xmlns:xlink="http://www.w3.org/1999/xlink" x="0px" y="0px"
	 viewBox="0 0 600 450" style="enable-background:new 0 0 600 450;" xml:space="preserve">
<style type="text/css">
	.st0{clip-path:url(#SVGID_00000158742517019355526580000017007823703444826786_);}
	.st1{fill:none;}
	.st2{clip-path:url(#SVGID_00000046337510470707898720000013253888615330577338_);}
	.st3{fill:#F0F0F0;}
	.st4{fill:#E0B404;}
	.st5{fill:#1B1B1B;}
	.st6{fill:#F0F0F0;stroke:#1B1B1B;stroke-width:5.2542;stroke-miterlimit:10;}
</style>
<g>
	<defs>
		<circle id="SVGID_1_" cx="-58.5" cy="205.1" r="197.5"/>
	</defs>
	<clipPath id="SVGID_00000139270294733487659860000005943990096204274859_">
		<use xlink:href="#SVGID_1_"  style="overflow:visible;"/>
	</clipPath>
	<g style="clip-path:url(#SVGID_00000139270294733487659860000005943990096204274859_);">
		<circle class="st1" cx="-58" cy="205.9" r="197.2"/>
	</g>
</g>
<g>
	<defs>
		<circle id="SVGID_00000052826455748402935490000003853119967382280872_" cx="301.1" cy="225.4" r="182.3"/>
	</defs>
	<clipPath id="SVGID_00000140013269477046925280000011243763702550277792_">
		<use xlink:href="#SVGID_00000052826455748402935490000003853119967382280872_"  style="overflow:visible;"/>
	</clipPath>
	<g style="clip-path:url(#SVGID_00000140013269477046925280000011243763702550277792_);">
		<polygon class="st3" points="369.4,288.6 325.8,288.6 325.8,250.8 364.4,254.5 		"/>
		<path class="st3" d="M301,396.9c-7.1,0-14.2-0.4-21.2-1.3c-37.5-4.6-69.1-16.2-93.9-34.3c-45-32.9-63.4-85.4-54.6-156.2
			C142,119.7,214.5,55.5,300.6,55.4c7.1,0,14.2,0.4,21.2,1.3c93.6,11.8,159.9,97.1,148.1,190.7C459.2,332.6,386.9,396.6,301,396.9
			L301,396.9z"/>
		<path class="st4" d="M300.6,66.7c6.6,0,13.2,0.4,19.8,1.2c87.4,11,149.3,90.8,138.3,178.2c-10,79.6-77.5,139.3-157.7,139.6
			c-6.6,0-13.2-0.4-19.8-1.2c-12.7-1.5-25.2-4-37.4-7.6c-19.6-5.8-36.8-14.1-51.2-24.5c-8.5-6.2-16.2-13.4-22.8-21.5
			c-7.3-9-13.3-18.9-17.8-29.6c-10.9-25.9-14-57.7-9.5-94.6C152.4,126.8,220.2,66.8,300.6,66.7L300.6,66.7 M300.6,44.1
			c-90.5,0-169,67.5-180.4,159.6c-22,177.6,126.9,199.1,158.2,203c7.5,0.9,15,1.4,22.6,1.4c90.5,0,169-67.5,180.4-159.6
			c12.4-99.8-58.5-190.6-158.2-203C315.7,44.6,308.1,44.2,300.6,44.1L300.6,44.1z"/>
		<path class="st5" d="M262.4,275.1c-9.9-29.8-4.4-98.5,5.3-142c0-0.1,0-0.2,0-0.3l1.5-35.3c0,0,0-0.1,0-0.1l-0.2-6.2
			c0-0.5,0.2-1.1,0.6-1.4l2.9-3c0.6-0.6,1.5-0.8,2.3-0.5l4.1,1.6c0.4,0.2,0.7,0.4,1,0.8l3.7,5.7c0,0.1,0.1,0.1,0.1,0.2l1.7,2
			c0.7,0.9,2,1,2.9,0.3c0.3-0.3,0.6-0.7,0.7-1.1l0,0c0.3-1.4,1.6-2.2,3-1.9c0.4,0.1,0.8,0.3,1,0.6l2.4,2.7c0.1,0.2,0.3,0.3,0.5,0.4
			c0.9,0.5,1.6,1.2,2.2,2l3.2,4.8c0.1,0.1,0.1,0.2,0.1,0.2l4,8.5c0.1,0.2,0.1,0.4,0.2,0.5l0.5,3.2c0.2,1.1,0.6,2.1,1.3,3l1.1,1.4
			c0.6,0.7,1.3,1.3,2.1,1.8l4.7,2.8c0.3,0.2,0.6,0.3,0.9,0.3l16.3,1.1l11.8,0.6c0.3,0,0.5,0.1,0.8,0.2l7.4,3.4
			c0.1,0.1,0.3,0.2,0.4,0.3l4,3.2c0.1,0.1,0.2,0.1,0.3,0.2l3.6,3.9l0.1,0.1l2.8,2.6c0.3,0.3,0.8,0.5,1.2,0.5l10.1,0.9
			c0.1,0,0.2,0,0.3,0l10-0.7l0.2,0l24.5-4.1c0.1,0,0.1,0,0.2,0l0,0c2.5,0.6,5,2.4,5,5l0.9,9.1c0,0.3,0,0.6-0.1,0.8l-3.9,16.5
			c-0.1,0.4-0.2,0.8-0.4,1.2c-0.1,0.2-0.3,0.4-0.5,0.6l-39.9,34.7c-0.3,0.3-0.6,0.7-0.6,1.1l-5.2,23.4c-0.1,0.5-1.5,13.4-1.3,13.8
			c0,0-45.5,42.7-43.5,59.1"/>
		<path class="st5" d="M361.9,282.6l-7.8,41.8l-7.5,23.9l6.2,70.8l-80.1-1c-55.8-7.2-52.9-25.2-77.2-20.3l67-122.7"/>
		<path class="st6" d="M316.4,402.7c0,0,7.5-11,14.8-21.9c6.9-10.3,13.6-20.5,13.5-21.2c-0.6-4.9,21.3-42.4,25.4-61.3
			c0,0,6.4-18.8-10.1-51.2"/>
		<path class="st4" d="M367.4,255.5c-29.1,6.5-77.8,1.1-104.8,25c-22.6,20-40.4,28.6-40.4,28.6c-3.5,1.8-28.9,10.6-48.3,13.2
			c-18.1,2.4-39.7-3.6-44.3-10.5c-5-7.5-5.5-13.1-6.3-19.7c-2.1-16.6-6.8-27.2-6.2-39.1c0.4-8-2.4-7.4,5-4.7
			c82.3,40.4,143.1-32.3,234.8-4.8"/>
		<path class="st4" d="M351.2,247.8c2.3-3.3,14-11.9,14-10.5c0,10.2,0,3,2.2,18.4"/>
	</g>
</g>
</svg>
